<mxfile host="app.diagrams.net" modified="2024-02-21T04:47:42.464Z" agent="Mozilla/5.0 (X11; Linux x86_64; rv:109.0) Gecko/20100101 Firefox/115.0" version="23.1.5" etag="EBq9vOKQCSfFAI0N59HV" type="github">
  <diagram name="Page-1" id="o9TKTe2-3B4JiVfj23MN">
    <mxGraphModel>
      <root>
        <mxCell id="0" />
        <mxCell id="1" parent="0" />
      </root>
    </mxGraphModel>
  </diagram>
</mxfile>
